<svg width="263" height="370" viewBox="0 0 263 370" fill="none" xmlns="http://www.w3.org/2000/svg">
<g clip-path="url(#clip0_3_75)">
<path fill-rule="evenodd" clip-rule="evenodd" d="M0 9.99999C0 4.47715 4.47715 0 10 0L253 0C258.523 0 263 4.47715 263 10V360C263 365.523 258.523 370 253 370H10C4.47715 370 0 365.523 0 360L0 9.99999Z" fill="#4CB9FC"/>
<g opacity="0.75">
<rect y="324" width="263" height="1" fill="#A2D2FC"/>
</g>
<path d="M26.728 262.108C26.4 262.108 26.144 262.084 25.96 262.036C25.784 261.996 25.64 261.944 25.528 261.88V261.016C25.688 261.08 25.852 261.136 26.02 261.184C26.196 261.232 26.412 261.256 26.668 261.256C27.1 261.256 27.44 261.128 27.688 260.872C27.936 260.616 28.06 260.2 28.06 259.624V253.42H29.104V259.672C29.104 260.104 29.04 260.472 28.912 260.776C28.792 261.08 28.624 261.332 28.408 261.532C28.192 261.732 27.94 261.88 27.652 261.976C27.364 262.064 27.056 262.108 26.728 262.108ZM32.8317 262.108C32.5437 262.108 32.2717 262.072 32.0157 262C31.7597 261.928 31.5357 261.816 31.3437 261.664C31.1597 261.512 31.0117 261.32 30.8997 261.088C30.7957 260.856 30.7437 260.58 30.7437 260.26C30.7437 259.9 30.8317 259.596 31.0077 259.348C31.1837 259.1 31.4157 258.9 31.7037 258.748C31.9997 258.596 32.3357 258.488 32.7117 258.424C33.0957 258.352 33.4877 258.316 33.8877 258.316H34.7877V257.86C34.7877 257.356 34.6837 256.996 34.4757 256.78C34.2677 256.556 33.9237 256.444 33.4437 256.444C32.5797 256.444 32.0997 256.82 32.0037 257.572H31.0077C31.0397 257.212 31.1277 256.908 31.2717 256.66C31.4237 256.412 31.6117 256.212 31.8357 256.06C32.0677 255.9 32.3237 255.788 32.6037 255.724C32.8917 255.652 33.1877 255.616 33.4917 255.616C33.7877 255.616 34.0757 255.652 34.3557 255.724C34.6357 255.788 34.8797 255.908 35.0877 256.084C35.2957 256.252 35.4637 256.48 35.5917 256.768C35.7197 257.056 35.7837 257.42 35.7837 257.86V262H34.7877V261.208C34.5557 261.504 34.2877 261.728 33.9837 261.88C33.6797 262.032 33.2957 262.108 32.8317 262.108ZM32.9277 261.316C33.1917 261.316 33.4357 261.284 33.6597 261.22C33.8917 261.148 34.0877 261.048 34.2477 260.92C34.4157 260.792 34.5477 260.636 34.6437 260.452C34.7397 260.26 34.7877 260.044 34.7877 259.804V259.024H33.9237C33.6117 259.024 33.3197 259.048 33.0477 259.096C32.7837 259.136 32.5517 259.204 32.3517 259.3C32.1597 259.396 32.0077 259.524 31.8957 259.684C31.7917 259.836 31.7397 260.028 31.7397 260.26C31.7397 260.588 31.8277 260.848 32.0037 261.04C32.1797 261.224 32.4877 261.316 32.9277 261.316ZM37.8808 255.724H38.8768V256.72C39.0208 256.424 39.2608 256.168 39.5968 255.952C39.9408 255.728 40.3728 255.616 40.8928 255.616C41.2128 255.616 41.5088 255.664 41.7808 255.76C42.0528 255.848 42.2848 255.996 42.4768 256.204C42.6768 256.404 42.8288 256.664 42.9328 256.984C43.0448 257.304 43.1008 257.692 43.1008 258.148V262H42.1048V258.076C42.1048 257.524 41.9848 257.12 41.7448 256.864C41.5048 256.608 41.1328 256.48 40.6288 256.48C40.3968 256.48 40.1728 256.516 39.9568 256.588C39.7488 256.66 39.5648 256.768 39.4048 256.912C39.2448 257.056 39.1168 257.236 39.0208 257.452C38.9248 257.668 38.8768 257.916 38.8768 258.196V262H37.8808V255.724ZM49.6888 254.452L47.7688 255.832V254.86L49.7608 253.42H50.7328V262H49.6888V254.452ZM52.504 263.14L53.656 260.512L54.628 260.968L53.152 263.476L52.504 263.14ZM59.0031 261.76L62.4111 258.172C62.8031 257.756 63.1071 257.348 63.3231 256.948C63.5391 256.548 63.6471 256.128 63.6471 255.688C63.6471 255.208 63.5111 254.832 63.2391 254.56C62.9751 254.288 62.5991 254.152 62.1111 254.152C61.6071 254.152 61.1991 254.3 60.8871 254.596C60.5831 254.892 60.3871 255.38 60.2991 256.06H59.3271C59.3591 255.644 59.4431 255.268 59.5791 254.932C59.7231 254.588 59.9151 254.296 60.1551 254.056C60.3951 253.816 60.6791 253.632 61.0071 253.504C61.3351 253.376 61.7031 253.312 62.1111 253.312C62.5031 253.312 62.8591 253.368 63.1791 253.48C63.4991 253.592 63.7711 253.756 63.9951 253.972C64.2271 254.18 64.4031 254.432 64.5231 254.728C64.6431 255.024 64.7031 255.356 64.7031 255.724C64.7031 256.252 64.5471 256.776 64.2351 257.296C63.9231 257.808 63.5031 258.324 62.9751 258.844L60.6111 261.148H64.7511V262H59.0031V261.76ZM69.6414 261.244C70.3934 261.244 70.9574 260.964 71.3334 260.404C71.7174 259.844 71.9094 259.016 71.9094 257.92V257.44C71.9094 256.944 71.8574 256.496 71.7534 256.096C71.6494 255.688 71.4974 255.34 71.2974 255.052C71.1054 254.764 70.8654 254.544 70.5774 254.392C70.2974 254.232 69.9774 254.152 69.6174 254.152C68.8894 254.152 68.3214 254.44 67.9134 255.016C67.5054 255.584 67.3014 256.4 67.3014 257.464V257.944C67.3014 259.032 67.5134 259.856 67.9374 260.416C68.3614 260.968 68.9294 261.244 69.6414 261.244ZM69.6414 262.108C69.1294 262.108 68.6614 262.008 68.2374 261.808C67.8214 261.608 67.4654 261.328 67.1694 260.968C66.8734 260.608 66.6414 260.172 66.4734 259.66C66.3134 259.148 66.2334 258.58 66.2334 257.956V257.476C66.2334 256.844 66.3094 256.272 66.4614 255.76C66.6214 255.248 66.8454 254.812 67.1334 254.452C67.4294 254.084 67.7854 253.804 68.2014 253.612C68.6174 253.412 69.0894 253.312 69.6174 253.312C70.1454 253.312 70.6174 253.412 71.0334 253.612C71.4494 253.812 71.7974 254.096 72.0774 254.464C72.3654 254.832 72.5854 255.272 72.7374 255.784C72.8894 256.288 72.9654 256.844 72.9654 257.452V257.932C72.9654 258.556 72.8894 259.124 72.7374 259.636C72.5934 260.148 72.3774 260.588 72.0894 260.956C71.8094 261.324 71.4614 261.608 71.0454 261.808C70.6374 262.008 70.1694 262.108 69.6414 262.108ZM76.1497 254.452L74.2297 255.832V254.86L76.2217 253.42H77.1937V262H76.1497V254.452ZM82.1301 262.096C81.3301 262.096 80.6981 261.904 80.2341 261.52C79.7701 261.128 79.4821 260.584 79.3701 259.888H80.3781C80.4741 260.312 80.6541 260.644 80.9181 260.884C81.1901 261.124 81.6021 261.244 82.1541 261.244C82.8421 261.244 83.3741 260.964 83.7501 260.404C84.1341 259.836 84.3341 258.98 84.3501 257.836C84.1421 258.188 83.8421 258.468 83.4501 258.676C83.0661 258.876 82.6261 258.976 82.1301 258.976C81.7141 258.976 81.3301 258.908 80.9781 258.772C80.6341 258.628 80.3381 258.432 80.0901 258.184C79.8421 257.928 79.6501 257.632 79.5141 257.296C79.3781 256.952 79.3101 256.576 79.3101 256.168C79.3101 255.736 79.3781 255.344 79.5141 254.992C79.6581 254.64 79.8581 254.34 80.1141 254.092C80.3701 253.836 80.6781 253.64 81.0381 253.504C81.4061 253.368 81.8181 253.3 82.2741 253.3C83.2981 253.3 84.0661 253.632 84.5781 254.296C85.0981 254.952 85.3581 255.9 85.3581 257.14V257.68C85.3581 259.112 85.0781 260.208 84.5181 260.968C83.9581 261.72 83.1621 262.096 82.1301 262.096ZM82.2861 258.16C82.5741 258.16 82.8381 258.116 83.0781 258.028C83.3181 257.94 83.5261 257.816 83.7021 257.656C83.8781 257.488 84.0141 257.292 84.1101 257.068C84.2061 256.836 84.2541 256.58 84.2541 256.3C84.2541 255.596 84.0661 255.056 83.6901 254.68C83.3221 254.304 82.8501 254.116 82.2741 254.116C81.9941 254.116 81.7381 254.164 81.5061 254.26C81.2741 254.356 81.0741 254.492 80.9061 254.668C80.7381 254.836 80.6061 255.044 80.5101 255.292C80.4221 255.54 80.3781 255.816 80.3781 256.12C80.3781 256.744 80.5501 257.24 80.8941 257.608C81.2381 257.976 81.7021 258.16 82.2861 258.16Z" fill="#C5E4FC"/>
<path fill-rule="evenodd" clip-rule="evenodd" d="M122.818 47.2464C122.594 46.9808 122.225 46.8907 121.91 47.0355C117.246 49.1198 112.34 50.6182 107.286 51.5034C112.651 47.4379 116.649 41.808 118.699 35.3525C118.798 35.0435 118.696 34.7055 118.445 34.5043C118.192 34.3031 117.842 34.2774 117.566 34.4432C111.523 38.0532 104.979 40.5977 98.1054 42.0092C92.0148 35.6422 83.51 32 74.708 32C56.8068 32 42.2449 46.6686 42.2449 64.6993C42.2449 66.8801 42.4542 69.04 42.8696 71.1371C18.0758 69.5953 -5.10758 57.6048 -20.871 38.1288C-21.0324 37.9292 -21.2768 37.8182 -21.5325 37.8439C-21.7865 37.8632 -22.0134 38.0081 -22.1412 38.2286C-25.0171 43.1986 -26.5366 48.8848 -26.5366 54.6692C-26.5366 64.6945 -22.015 74.0679 -14.3154 80.2531C-18.2794 79.7735 -22.1508 78.5165 -25.6419 76.5642C-25.8767 76.4306 -26.1691 76.4322 -26.404 76.569C-26.6389 76.7042 -26.7874 76.9553 -26.7938 77.2289L-26.797 77.6474C-26.797 92.0456 -17.3783 104.688 -3.97798 108.885C-7.5074 109.458 -11.1694 109.42 -14.7692 108.728C-15.0344 108.678 -15.3124 108.769 -15.4946 108.975C-15.6751 109.181 -15.7358 109.47 -15.6527 109.73C-11.6344 122.364 -0.469318 131.225 12.5268 132.329C1.68605 140.329 -11.1279 144.544 -24.6672 144.544C-27.1613 144.544 -29.673 144.395 -32.1335 144.103C-32.485 144.063 -32.8333 144.274 -32.9548 144.614C-33.0762 144.956 -32.9468 145.339 -32.6432 145.534C-17.9918 154.999 -1.0509 160 16.3502 160C73.27 160 107.283 113.426 107.283 68.3994C107.283 67.1457 107.259 65.8983 107.209 64.6542C113.35 60.1301 118.621 54.5919 122.871 48.1815C123.061 47.895 123.04 47.5135 122.818 47.2464Z" fill="#1DA1F2"/>
<path d="M26.3 110.7H32.18L34.6 117.64L37.06 110.7H42.82V125H38.32V116.56L35.06 125H33.54L30.34 116.56V125H26.3V110.7ZM48.2448 123.96L44.0648 114.54H48.3248L50.3048 119.76L52.1448 114.54H55.8648L50.2848 128.48H46.5448L48.2448 123.96ZM59.7884 124.38L64.6484 119.22C65.3684 118.447 65.9484 117.753 66.3884 117.14C66.8284 116.513 67.0484 115.9 67.0484 115.3C67.0484 114.887 66.9418 114.547 66.7284 114.28C66.5284 114.013 66.2018 113.88 65.7484 113.88C65.2818 113.88 64.9084 114.04 64.6284 114.36C64.3618 114.68 64.1818 115.24 64.0884 116.04H60.0084C60.0751 114.173 60.6351 112.78 61.6884 111.86C62.7418 110.94 64.1684 110.48 65.9684 110.48C66.8751 110.48 67.6751 110.6 68.3684 110.84C69.0618 111.067 69.6418 111.387 70.1084 111.8C70.5751 112.2 70.9218 112.687 71.1484 113.26C71.3884 113.82 71.5084 114.433 71.5084 115.1C71.5084 115.607 71.4418 116.08 71.3084 116.52C71.1884 116.947 71.0084 117.36 70.7684 117.76C70.5418 118.16 70.2618 118.553 69.9284 118.94C69.6084 119.313 69.2484 119.687 68.8484 120.06L67.2084 121.64H71.6284V125H59.7884V124.38ZM79.5303 121.76C80.3303 121.76 80.897 121.467 81.2303 120.88C81.577 120.28 81.7503 119.353 81.7503 118.1V117.58C81.7503 116.327 81.5703 115.407 81.2103 114.82C80.8636 114.22 80.2903 113.92 79.4903 113.92C78.677 113.92 78.0903 114.213 77.7303 114.8C77.3836 115.387 77.2103 116.307 77.2103 117.56V118.12C77.2103 119.373 77.3836 120.293 77.7303 120.88C78.0903 121.467 78.6903 121.76 79.5303 121.76ZM79.3903 125.26C78.3636 125.26 77.437 125.107 76.6103 124.8C75.7836 124.48 75.077 124.02 74.4903 123.42C73.917 122.807 73.477 122.06 73.1703 121.18C72.8636 120.3 72.7103 119.287 72.7103 118.14V117.58C72.7103 116.433 72.8836 115.42 73.2303 114.54C73.577 113.66 74.0503 112.92 74.6503 112.32C75.2636 111.72 75.977 111.267 76.7903 110.96C77.617 110.64 78.5103 110.48 79.4703 110.48C80.417 110.48 81.3036 110.627 82.1303 110.92C82.957 111.2 83.6703 111.633 84.2703 112.22C84.8836 112.793 85.3636 113.52 85.7103 114.4C86.0703 115.267 86.2503 116.293 86.2503 117.48V118.02C86.2503 119.167 86.0903 120.193 85.7703 121.1C85.4503 121.993 84.9903 122.753 84.3903 123.38C83.7903 123.993 83.0636 124.46 82.2103 124.78C81.3703 125.1 80.4303 125.26 79.3903 125.26ZM90.1545 115.16L87.5145 116.74V112.98L90.7945 110.7H94.6945V125H90.1545V115.16ZM102.614 125.24C100.868 125.24 99.4942 124.867 98.4942 124.12C97.5076 123.36 96.9476 122.273 96.8142 120.86H100.954C101.008 121.167 101.141 121.42 101.354 121.62C101.568 121.807 101.908 121.9 102.374 121.9C103.174 121.9 103.741 121.613 104.074 121.04C104.421 120.467 104.608 119.627 104.634 118.52C104.474 118.76 104.301 118.98 104.114 119.18C103.941 119.38 103.728 119.553 103.474 119.7C103.234 119.847 102.948 119.96 102.614 120.04C102.294 120.12 101.914 120.16 101.474 120.16C100.794 120.16 100.154 120.067 99.5542 119.88C98.9676 119.693 98.4542 119.413 98.0142 119.04C97.5742 118.653 97.2276 118.173 96.9742 117.6C96.7342 117.013 96.6142 116.333 96.6142 115.56C96.6142 114.8 96.7542 114.113 97.0342 113.5C97.3142 112.873 97.7142 112.333 98.2342 111.88C98.7542 111.427 99.3876 111.08 100.134 110.84C100.881 110.587 101.721 110.46 102.654 110.46C103.761 110.46 104.721 110.64 105.534 111C106.348 111.347 107.021 111.84 107.554 112.48C108.088 113.107 108.481 113.86 108.734 114.74C109.001 115.607 109.134 116.553 109.134 117.58V117.98C109.134 120.3 108.574 122.093 107.454 123.36C106.334 124.613 104.721 125.24 102.614 125.24ZM102.594 117.3C103.114 117.3 103.528 117.127 103.834 116.78C104.154 116.433 104.314 116.007 104.314 115.5C104.314 114.967 104.161 114.527 103.854 114.18C103.548 113.82 103.128 113.64 102.594 113.64C102.088 113.64 101.681 113.82 101.374 114.18C101.068 114.527 100.914 114.967 100.914 115.5C100.914 116.007 101.061 116.433 101.354 116.78C101.661 117.127 102.074 117.3 102.594 117.3ZM119.437 128.88C117.624 128.88 116.27 128.527 115.377 127.82C114.484 127.127 113.97 126.16 113.837 124.92H117.737C117.777 125.08 117.83 125.233 117.897 125.38C117.964 125.527 118.057 125.66 118.177 125.78C118.31 125.9 118.477 125.993 118.677 126.06C118.89 126.127 119.15 126.16 119.457 126.16C120.204 126.16 120.724 125.967 121.017 125.58C121.31 125.193 121.457 124.72 121.457 124.16V122.54C121.19 123.047 120.79 123.48 120.257 123.84C119.724 124.2 119.064 124.38 118.277 124.38C117.677 124.38 117.11 124.273 116.577 124.06C116.057 123.847 115.597 123.533 115.197 123.12C114.797 122.693 114.477 122.173 114.237 121.56C114.01 120.947 113.897 120.233 113.897 119.42V119.26C113.897 118.473 114.01 117.773 114.237 117.16C114.477 116.533 114.79 116.007 115.177 115.58C115.577 115.14 116.037 114.807 116.557 114.58C117.09 114.353 117.657 114.24 118.257 114.24C119.084 114.24 119.75 114.4 120.257 114.72C120.764 115.027 121.164 115.447 121.457 115.98V114.54H125.397V124.1C125.397 125.673 124.89 126.86 123.877 127.66C122.877 128.473 121.397 128.88 119.437 128.88ZM119.737 121.58C120.324 121.58 120.777 121.387 121.097 121C121.417 120.613 121.577 120.087 121.577 119.42V119.28C121.577 118.64 121.417 118.127 121.097 117.74C120.79 117.353 120.337 117.16 119.737 117.16C119.137 117.16 118.677 117.353 118.357 117.74C118.05 118.113 117.897 118.633 117.897 119.3V119.46C117.897 120.1 118.05 120.613 118.357 121C118.677 121.387 119.137 121.58 119.737 121.58ZM132.608 122.36C133.808 122.36 134.408 121.513 134.408 119.82V119.68C134.408 118.853 134.261 118.227 133.968 117.8C133.675 117.373 133.221 117.16 132.608 117.16C132.008 117.16 131.548 117.367 131.228 117.78C130.908 118.18 130.748 118.793 130.748 119.62V119.78C130.748 121.5 131.368 122.36 132.608 122.36ZM132.588 125.26C131.775 125.26 131.015 125.147 130.308 124.92C129.601 124.68 128.981 124.333 128.448 123.88C127.928 123.413 127.515 122.853 127.208 122.2C126.915 121.533 126.768 120.767 126.768 119.9V119.74C126.768 118.887 126.915 118.127 127.208 117.46C127.515 116.78 127.928 116.207 128.448 115.74C128.968 115.26 129.581 114.893 130.288 114.64C131.008 114.387 131.781 114.26 132.608 114.26C133.421 114.26 134.181 114.387 134.888 114.64C135.595 114.88 136.208 115.233 136.728 115.7C137.248 116.153 137.655 116.713 137.948 117.38C138.255 118.047 138.408 118.8 138.408 119.64V119.8C138.408 120.667 138.255 121.44 137.948 122.12C137.655 122.787 137.241 123.353 136.708 123.82C136.188 124.287 135.575 124.647 134.868 124.9C134.161 125.14 133.401 125.26 132.588 125.26ZM142.808 125.26C142.341 125.26 141.888 125.2 141.448 125.08C141.021 124.96 140.641 124.773 140.308 124.52C139.988 124.267 139.728 123.94 139.528 123.54C139.341 123.14 139.248 122.66 139.248 122.1C139.248 120.873 139.728 120 140.688 119.48C141.661 118.947 143.054 118.68 144.868 118.68H145.768V118.5C145.768 118.287 145.754 118.087 145.728 117.9C145.701 117.713 145.641 117.553 145.548 117.42C145.468 117.273 145.348 117.167 145.188 117.1C145.028 117.02 144.814 116.98 144.548 116.98C144.094 116.98 143.781 117.1 143.608 117.34C143.434 117.58 143.334 117.833 143.308 118.1H139.628C139.668 117.46 139.814 116.9 140.068 116.42C140.334 115.94 140.688 115.54 141.128 115.22C141.581 114.887 142.114 114.64 142.728 114.48C143.354 114.32 144.041 114.24 144.788 114.24C146.308 114.24 147.501 114.567 148.368 115.22C149.234 115.86 149.668 116.867 149.668 118.24V125H145.868V123.8C145.761 123.987 145.621 124.167 145.448 124.34C145.274 124.513 145.061 124.667 144.808 124.8C144.554 124.933 144.261 125.04 143.928 125.12C143.608 125.213 143.234 125.26 142.808 125.26ZM144.228 122.62C144.681 122.62 145.048 122.507 145.328 122.28C145.621 122.04 145.768 121.727 145.768 121.34V120.8H144.928C144.261 120.8 143.794 120.873 143.528 121.02C143.261 121.167 143.128 121.427 143.128 121.8C143.128 122.053 143.221 122.253 143.408 122.4C143.594 122.547 143.868 122.62 144.228 122.62ZM151.587 110H155.507V125H151.587V110ZM161.294 114.54H165.214V125H161.294V114.54ZM163.254 113.76C162.641 113.76 162.128 113.573 161.714 113.2C161.314 112.827 161.114 112.353 161.114 111.78C161.114 111.193 161.314 110.713 161.714 110.34C162.128 109.967 162.641 109.78 163.254 109.78C163.854 109.78 164.354 109.967 164.754 110.34C165.168 110.713 165.374 111.193 165.374 111.78C165.374 112.353 165.168 112.827 164.754 113.2C164.354 113.573 163.854 113.76 163.254 113.76ZM171.509 125.26C169.976 125.26 168.776 124.953 167.909 124.34C167.056 123.727 166.616 122.827 166.589 121.64H170.189C170.256 121.987 170.376 122.253 170.549 122.44C170.722 122.627 171.036 122.72 171.489 122.72C171.876 122.72 172.156 122.653 172.329 122.52C172.502 122.387 172.589 122.207 172.589 121.98C172.589 121.753 172.456 121.573 172.189 121.44C171.936 121.307 171.456 121.193 170.749 121.1C170.042 121.02 169.429 120.907 168.909 120.76C168.402 120.613 167.982 120.413 167.649 120.16C167.329 119.907 167.089 119.587 166.929 119.2C166.769 118.813 166.689 118.34 166.689 117.78C166.689 117.18 166.809 116.66 167.049 116.22C167.302 115.767 167.636 115.4 168.049 115.12C168.476 114.827 168.969 114.607 169.529 114.46C170.102 114.313 170.709 114.24 171.349 114.24C172.029 114.24 172.649 114.3 173.209 114.42C173.769 114.54 174.256 114.74 174.669 115.02C175.082 115.287 175.409 115.64 175.649 116.08C175.902 116.52 176.062 117.06 176.129 117.7H172.589C172.522 117.393 172.396 117.153 172.209 116.98C172.036 116.807 171.769 116.72 171.409 116.72C171.049 116.72 170.782 116.793 170.609 116.94C170.449 117.073 170.369 117.24 170.369 117.44C170.369 117.68 170.496 117.86 170.749 117.98C171.002 118.087 171.422 118.173 172.009 118.24C172.769 118.333 173.422 118.453 173.969 118.6C174.529 118.747 174.989 118.947 175.349 119.2C175.709 119.453 175.976 119.773 176.149 120.16C176.336 120.547 176.429 121.02 176.429 121.58C176.429 122.22 176.309 122.773 176.069 123.24C175.842 123.707 175.509 124.093 175.069 124.4C174.642 124.693 174.122 124.907 173.509 125.04C172.909 125.187 172.242 125.26 171.509 125.26ZM185.749 125.24C184.509 125.24 183.556 124.947 182.889 124.36C182.223 123.773 181.889 122.82 181.889 121.5V117.18H180.669V114.54H181.889V112.4H185.829V114.54H187.829V117.18H185.829V121.12C185.829 121.48 185.916 121.74 186.089 121.9C186.276 122.06 186.529 122.14 186.849 122.14C187.196 122.14 187.523 122.087 187.829 121.98V124.94C187.589 125.007 187.289 125.073 186.929 125.14C186.569 125.207 186.176 125.24 185.749 125.24ZM189.319 110H193.259V116.22C193.552 115.66 193.979 115.193 194.539 114.82C195.112 114.447 195.839 114.26 196.719 114.26C197.212 114.26 197.666 114.34 198.079 114.5C198.492 114.66 198.846 114.9 199.139 115.22C199.432 115.54 199.659 115.94 199.819 116.42C199.992 116.9 200.079 117.467 200.079 118.12V125H196.139V119C196.139 118.467 196.032 118.067 195.819 117.8C195.619 117.533 195.286 117.4 194.819 117.4C194.326 117.4 193.939 117.547 193.659 117.84C193.392 118.133 193.259 118.593 193.259 119.22V125H189.319V110ZM207.177 125.26C206.337 125.26 205.564 125.147 204.857 124.92C204.15 124.68 203.537 124.333 203.017 123.88C202.51 123.427 202.11 122.867 201.817 122.2C201.524 121.533 201.377 120.767 201.377 119.9V119.74C201.377 118.887 201.53 118.12 201.837 117.44C202.144 116.76 202.557 116.187 203.077 115.72C203.597 115.24 204.21 114.873 204.917 114.62C205.624 114.367 206.377 114.24 207.177 114.24C207.91 114.24 208.604 114.347 209.257 114.56C209.924 114.773 210.504 115.107 210.997 115.56C211.49 116 211.884 116.567 212.177 117.26C212.47 117.94 212.617 118.747 212.617 119.68V120.64H205.357C205.41 121.28 205.61 121.767 205.957 122.1C206.304 122.42 206.757 122.58 207.317 122.58C207.877 122.58 208.27 122.473 208.497 122.26C208.737 122.033 208.89 121.767 208.957 121.46H212.637C212.477 122.673 211.944 123.613 211.037 124.28C210.13 124.933 208.844 125.26 207.177 125.26ZM208.817 118.58C208.79 118.02 208.644 117.58 208.377 117.26C208.11 116.94 207.71 116.78 207.177 116.78C206.697 116.78 206.297 116.933 205.977 117.24C205.657 117.533 205.457 117.98 205.377 118.58H208.817ZM30.22 150.26C28.6867 150.26 27.4867 149.953 26.62 149.34C25.7667 148.727 25.3267 147.827 25.3 146.64H28.9C28.9667 146.987 29.0867 147.253 29.26 147.44C29.4333 147.627 29.7467 147.72 30.2 147.72C30.5867 147.72 30.8667 147.653 31.04 147.52C31.2133 147.387 31.3 147.207 31.3 146.98C31.3 146.753 31.1667 146.573 30.9 146.44C30.6467 146.307 30.1667 146.193 29.46 146.1C28.7533 146.02 28.14 145.907 27.62 145.76C27.1133 145.613 26.6933 145.413 26.36 145.16C26.04 144.907 25.8 144.587 25.64 144.2C25.48 143.813 25.4 143.34 25.4 142.78C25.4 142.18 25.52 141.66 25.76 141.22C26.0133 140.767 26.3467 140.4 26.76 140.12C27.1867 139.827 27.68 139.607 28.24 139.46C28.8133 139.313 29.42 139.24 30.06 139.24C30.74 139.24 31.36 139.3 31.92 139.42C32.48 139.54 32.9667 139.74 33.38 140.02C33.7933 140.287 34.12 140.64 34.36 141.08C34.6133 141.52 34.7733 142.06 34.84 142.7H31.3C31.2333 142.393 31.1067 142.153 30.92 141.98C30.7467 141.807 30.48 141.72 30.12 141.72C29.76 141.72 29.4933 141.793 29.32 141.94C29.16 142.073 29.08 142.24 29.08 142.44C29.08 142.68 29.2067 142.86 29.46 142.98C29.7133 143.087 30.1333 143.173 30.72 143.24C31.48 143.333 32.1333 143.453 32.68 143.6C33.24 143.747 33.7 143.947 34.06 144.2C34.42 144.453 34.6867 144.773 34.86 145.16C35.0467 145.547 35.14 146.02 35.14 146.58C35.14 147.22 35.02 147.773 34.78 148.24C34.5533 148.707 34.22 149.093 33.78 149.4C33.3533 149.693 32.8333 149.907 32.22 150.04C31.62 150.187 30.9533 150.26 30.22 150.26ZM39.4288 150.26C38.9621 150.26 38.5088 150.2 38.0688 150.08C37.6421 149.96 37.2621 149.773 36.9288 149.52C36.6088 149.267 36.3488 148.94 36.1488 148.54C35.9621 148.14 35.8688 147.66 35.8688 147.1C35.8688 145.873 36.3488 145 37.3088 144.48C38.2821 143.947 39.6754 143.68 41.4888 143.68H42.3888V143.5C42.3888 143.287 42.3754 143.087 42.3488 142.9C42.3221 142.713 42.2621 142.553 42.1688 142.42C42.0888 142.273 41.9688 142.167 41.8088 142.1C41.6488 142.02 41.4354 141.98 41.1688 141.98C40.7154 141.98 40.4021 142.1 40.2288 142.34C40.0554 142.58 39.9554 142.833 39.9288 143.1H36.2488C36.2888 142.46 36.4354 141.9 36.6888 141.42C36.9554 140.94 37.3088 140.54 37.7488 140.22C38.2021 139.887 38.7354 139.64 39.3488 139.48C39.9754 139.32 40.6621 139.24 41.4088 139.24C42.9288 139.24 44.1221 139.567 44.9888 140.22C45.8554 140.86 46.2888 141.867 46.2888 143.24V150H42.4888V148.8C42.3821 148.987 42.2421 149.167 42.0688 149.34C41.8954 149.513 41.6821 149.667 41.4288 149.8C41.1754 149.933 40.8821 150.04 40.5488 150.12C40.2288 150.213 39.8554 150.26 39.4288 150.26ZM40.8488 147.62C41.3021 147.62 41.6688 147.507 41.9488 147.28C42.2421 147.04 42.3888 146.727 42.3888 146.34V145.8H41.5488C40.8821 145.8 40.4154 145.873 40.1488 146.02C39.8821 146.167 39.7488 146.427 39.7488 146.8C39.7488 147.053 39.8421 147.253 40.0288 147.4C40.2154 147.547 40.4888 147.62 40.8488 147.62ZM48.108 139.54H52.048V141.14C52.3413 140.633 52.7613 140.193 53.308 139.82C53.8546 139.447 54.5346 139.26 55.348 139.26C56.7213 139.26 57.6546 139.82 58.148 140.94C58.6146 140.34 59.1413 139.913 59.728 139.66C60.3146 139.393 60.9346 139.26 61.588 139.26C62.588 139.26 63.4013 139.58 64.028 140.22C64.668 140.86 64.988 141.82 64.988 143.1V150H61.068V143.82C61.068 143.353 60.9613 143.007 60.748 142.78C60.5346 142.54 60.248 142.42 59.888 142.42C59.448 142.42 59.108 142.56 58.868 142.84C58.628 143.107 58.508 143.493 58.508 144V150H54.608V143.82C54.608 143.353 54.5013 143.007 54.288 142.78C54.0746 142.54 53.7946 142.42 53.448 142.42C52.9946 142.42 52.648 142.56 52.408 142.84C52.168 143.107 52.048 143.493 52.048 144V150H48.108V139.54ZM72.0794 150.26C71.2394 150.26 70.466 150.147 69.7594 149.92C69.0527 149.68 68.4394 149.333 67.9194 148.88C67.4127 148.427 67.0127 147.867 66.7194 147.2C66.426 146.533 66.2794 145.767 66.2794 144.9V144.74C66.2794 143.887 66.4327 143.12 66.7394 142.44C67.046 141.76 67.4594 141.187 67.9794 140.72C68.4994 140.24 69.1127 139.873 69.8194 139.62C70.526 139.367 71.2794 139.24 72.0794 139.24C72.8127 139.24 73.506 139.347 74.1594 139.56C74.826 139.773 75.406 140.107 75.8994 140.56C76.3927 141 76.786 141.567 77.0794 142.26C77.3727 142.94 77.5194 143.747 77.5194 144.68V145.64H70.2594C70.3127 146.28 70.5127 146.767 70.8594 147.1C71.206 147.42 71.6594 147.58 72.2194 147.58C72.7794 147.58 73.1727 147.473 73.3994 147.26C73.6394 147.033 73.7927 146.767 73.8594 146.46H77.5394C77.3794 147.673 76.846 148.613 75.9394 149.28C75.0327 149.933 73.746 150.26 72.0794 150.26ZM73.7194 143.58C73.6927 143.02 73.546 142.58 73.2794 142.26C73.0127 141.94 72.6127 141.78 72.0794 141.78C71.5994 141.78 71.1994 141.933 70.8794 142.24C70.5594 142.533 70.3594 142.98 70.2794 143.58H73.7194ZM87.6011 153.88C85.7878 153.88 84.4344 153.527 83.5411 152.82C82.6478 152.127 82.1344 151.16 82.0011 149.92H85.9011C85.9411 150.08 85.9944 150.233 86.0611 150.38C86.1278 150.527 86.2211 150.66 86.3411 150.78C86.4744 150.9 86.6411 150.993 86.8411 151.06C87.0544 151.127 87.3144 151.16 87.6211 151.16C88.3678 151.16 88.8878 150.967 89.1811 150.58C89.4744 150.193 89.6211 149.72 89.6211 149.16V147.54C89.3544 148.047 88.9544 148.48 88.4211 148.84C87.8878 149.2 87.2278 149.38 86.4411 149.38C85.8411 149.38 85.2744 149.273 84.7411 149.06C84.2211 148.847 83.7611 148.533 83.3611 148.12C82.9611 147.693 82.6411 147.173 82.4011 146.56C82.1744 145.947 82.0611 145.233 82.0611 144.42V144.26C82.0611 143.473 82.1744 142.773 82.4011 142.16C82.6411 141.533 82.9544 141.007 83.3411 140.58C83.7411 140.14 84.2011 139.807 84.7211 139.58C85.2544 139.353 85.8211 139.24 86.4211 139.24C87.2478 139.24 87.9144 139.4 88.4211 139.72C88.9278 140.027 89.3278 140.447 89.6211 140.98V139.54H93.5611V149.1C93.5611 150.673 93.0544 151.86 92.0411 152.66C91.0411 153.473 89.5611 153.88 87.6011 153.88ZM87.9011 146.58C88.4878 146.58 88.9411 146.387 89.2611 146C89.5811 145.613 89.7411 145.087 89.7411 144.42V144.28C89.7411 143.64 89.5811 143.127 89.2611 142.74C88.9544 142.353 88.5011 142.16 87.9011 142.16C87.3011 142.16 86.8411 142.353 86.5211 142.74C86.2144 143.113 86.0611 143.633 86.0611 144.3V144.46C86.0611 145.1 86.2144 145.613 86.5211 146C86.8411 146.387 87.3011 146.58 87.9011 146.58ZM100.772 147.36C101.972 147.36 102.572 146.513 102.572 144.82V144.68C102.572 143.853 102.426 143.227 102.132 142.8C101.839 142.373 101.386 142.16 100.772 142.16C100.172 142.16 99.7122 142.367 99.3922 142.78C99.0722 143.18 98.9122 143.793 98.9122 144.62V144.78C98.9122 146.5 99.5322 147.36 100.772 147.36ZM100.752 150.26C99.9389 150.26 99.1789 150.147 98.4722 149.92C97.7655 149.68 97.1455 149.333 96.6122 148.88C96.0922 148.413 95.6789 147.853 95.3722 147.2C95.0789 146.533 94.9322 145.767 94.9322 144.9V144.74C94.9322 143.887 95.0789 143.127 95.3722 142.46C95.6789 141.78 96.0922 141.207 96.6122 140.74C97.1322 140.26 97.7455 139.893 98.4522 139.64C99.1722 139.387 99.9455 139.26 100.772 139.26C101.586 139.26 102.346 139.387 103.052 139.64C103.759 139.88 104.372 140.233 104.892 140.7C105.412 141.153 105.819 141.713 106.112 142.38C106.419 143.047 106.572 143.8 106.572 144.64V144.8C106.572 145.667 106.419 146.44 106.112 147.12C105.819 147.787 105.406 148.353 104.872 148.82C104.352 149.287 103.739 149.647 103.032 149.9C102.326 150.14 101.566 150.26 100.752 150.26ZM110.972 150.26C110.505 150.26 110.052 150.2 109.612 150.08C109.185 149.96 108.805 149.773 108.472 149.52C108.152 149.267 107.892 148.94 107.692 148.54C107.505 148.14 107.412 147.66 107.412 147.1C107.412 145.873 107.892 145 108.852 144.48C109.825 143.947 111.218 143.68 113.032 143.68H113.932V143.5C113.932 143.287 113.918 143.087 113.892 142.9C113.865 142.713 113.805 142.553 113.712 142.42C113.632 142.273 113.512 142.167 113.352 142.1C113.192 142.02 112.978 141.98 112.712 141.98C112.258 141.98 111.945 142.1 111.772 142.34C111.598 142.58 111.498 142.833 111.472 143.1H107.792C107.832 142.46 107.978 141.9 108.232 141.42C108.498 140.94 108.852 140.54 109.292 140.22C109.745 139.887 110.278 139.64 110.892 139.48C111.518 139.32 112.205 139.24 112.952 139.24C114.472 139.24 115.665 139.567 116.532 140.22C117.398 140.86 117.832 141.867 117.832 143.24V150H114.032V148.8C113.925 148.987 113.785 149.167 113.612 149.34C113.438 149.513 113.225 149.667 112.972 149.8C112.718 149.933 112.425 150.04 112.092 150.12C111.772 150.213 111.398 150.26 110.972 150.26ZM112.392 147.62C112.845 147.62 113.212 147.507 113.492 147.28C113.785 147.04 113.932 146.727 113.932 146.34V145.8H113.092C112.425 145.8 111.958 145.873 111.692 146.02C111.425 146.167 111.292 146.427 111.292 146.8C111.292 147.053 111.385 147.253 111.572 147.4C111.758 147.547 112.032 147.62 112.392 147.62ZM119.751 135H123.671V150H119.751V135ZM132.358 150.26C131.892 150.26 131.438 150.2 130.998 150.08C130.572 149.96 130.192 149.773 129.858 149.52C129.538 149.267 129.278 148.94 129.078 148.54C128.892 148.14 128.798 147.66 128.798 147.1C128.798 145.873 129.278 145 130.238 144.48C131.212 143.947 132.605 143.68 134.418 143.68H135.318V143.5C135.318 143.287 135.305 143.087 135.278 142.9C135.252 142.713 135.192 142.553 135.098 142.42C135.018 142.273 134.898 142.167 134.738 142.1C134.578 142.02 134.365 141.98 134.098 141.98C133.645 141.98 133.332 142.1 133.158 142.34C132.985 142.58 132.885 142.833 132.858 143.1H129.178C129.218 142.46 129.365 141.9 129.618 141.42C129.885 140.94 130.238 140.54 130.678 140.22C131.132 139.887 131.665 139.64 132.278 139.48C132.905 139.32 133.592 139.24 134.338 139.24C135.858 139.24 137.052 139.567 137.918 140.22C138.785 140.86 139.218 141.867 139.218 143.24V150H135.418V148.8C135.312 148.987 135.172 149.167 134.998 149.34C134.825 149.513 134.612 149.667 134.358 149.8C134.105 149.933 133.812 150.04 133.478 150.12C133.158 150.213 132.785 150.26 132.358 150.26ZM133.778 147.62C134.232 147.62 134.598 147.507 134.878 147.28C135.172 147.04 135.318 146.727 135.318 146.34V145.8H134.478C133.812 145.8 133.345 145.873 133.078 146.02C132.812 146.167 132.678 146.427 132.678 146.8C132.678 147.053 132.772 147.253 132.958 147.4C133.145 147.547 133.418 147.62 133.778 147.62ZM145.318 150.26C143.784 150.26 142.584 149.953 141.718 149.34C140.864 148.727 140.424 147.827 140.398 146.64H143.998C144.064 146.987 144.184 147.253 144.358 147.44C144.531 147.627 144.844 147.72 145.298 147.72C145.684 147.72 145.964 147.653 146.138 147.52C146.311 147.387 146.398 147.207 146.398 146.98C146.398 146.753 146.264 146.573 145.998 146.44C145.744 146.307 145.264 146.193 144.558 146.1C143.851 146.02 143.238 145.907 142.718 145.76C142.211 145.613 141.791 145.413 141.458 145.16C141.138 144.907 140.898 144.587 140.738 144.2C140.578 143.813 140.498 143.34 140.498 142.78C140.498 142.18 140.618 141.66 140.858 141.22C141.111 140.767 141.444 140.4 141.858 140.12C142.284 139.827 142.778 139.607 143.338 139.46C143.911 139.313 144.518 139.24 145.158 139.24C145.838 139.24 146.458 139.3 147.018 139.42C147.578 139.54 148.064 139.74 148.478 140.02C148.891 140.287 149.218 140.64 149.458 141.08C149.711 141.52 149.871 142.06 149.938 142.7H146.398C146.331 142.393 146.204 142.153 146.018 141.98C145.844 141.807 145.578 141.72 145.218 141.72C144.858 141.72 144.591 141.793 144.418 141.94C144.258 142.073 144.178 142.24 144.178 142.44C144.178 142.68 144.304 142.86 144.558 142.98C144.811 143.087 145.231 143.173 145.818 143.24C146.578 143.333 147.231 143.453 147.778 143.6C148.338 143.747 148.798 143.947 149.158 144.2C149.518 144.453 149.784 144.773 149.958 145.16C150.144 145.547 150.238 146.02 150.238 146.58C150.238 147.22 150.118 147.773 149.878 148.24C149.651 148.707 149.318 149.093 148.878 149.4C148.451 149.693 147.931 149.907 147.318 150.04C146.718 150.187 146.051 150.26 145.318 150.26ZM160.478 150.26C159.638 150.26 158.864 150.147 158.158 149.92C157.451 149.68 156.838 149.333 156.318 148.88C155.811 148.427 155.411 147.867 155.118 147.2C154.824 146.533 154.678 145.767 154.678 144.9V144.74C154.678 143.887 154.831 143.12 155.138 142.44C155.444 141.76 155.858 141.187 156.378 140.72C156.898 140.24 157.511 139.873 158.218 139.62C158.924 139.367 159.678 139.24 160.478 139.24C161.211 139.24 161.904 139.347 162.558 139.56C163.224 139.773 163.804 140.107 164.298 140.56C164.791 141 165.184 141.567 165.478 142.26C165.771 142.94 165.918 143.747 165.918 144.68V145.64H158.658C158.711 146.28 158.911 146.767 159.258 147.1C159.604 147.42 160.058 147.58 160.618 147.58C161.178 147.58 161.571 147.473 161.798 147.26C162.038 147.033 162.191 146.767 162.258 146.46H165.938C165.778 147.673 165.244 148.613 164.338 149.28C163.431 149.933 162.144 150.26 160.478 150.26ZM162.118 143.58C162.091 143.02 161.944 142.58 161.678 142.26C161.411 141.94 161.011 141.78 160.478 141.78C159.998 141.78 159.598 141.933 159.278 142.24C158.958 142.533 158.758 142.98 158.678 143.58H162.118ZM166.038 139.54H170.238L172.218 145.9L174.218 139.54H177.918L174.098 150H169.878L166.038 139.54ZM183.622 150.26C182.782 150.26 182.009 150.147 181.302 149.92C180.596 149.68 179.982 149.333 179.462 148.88C178.956 148.427 178.556 147.867 178.262 147.2C177.969 146.533 177.822 145.767 177.822 144.9V144.74C177.822 143.887 177.976 143.12 178.282 142.44C178.589 141.76 179.002 141.187 179.522 140.72C180.042 140.24 180.656 139.873 181.362 139.62C182.069 139.367 182.822 139.24 183.622 139.24C184.356 139.24 185.049 139.347 185.702 139.56C186.369 139.773 186.949 140.107 187.442 140.56C187.936 141 188.329 141.567 188.622 142.26C188.916 142.94 189.062 143.747 189.062 144.68V145.64H181.802C181.856 146.28 182.056 146.767 182.402 147.1C182.749 147.42 183.202 147.58 183.762 147.58C184.322 147.58 184.716 147.473 184.942 147.26C185.182 147.033 185.336 146.767 185.402 146.46H189.082C188.922 147.673 188.389 148.613 187.482 149.28C186.576 149.933 185.289 150.26 183.622 150.26ZM185.262 143.58C185.236 143.02 185.089 142.58 184.822 142.26C184.556 141.94 184.156 141.78 183.622 141.78C183.142 141.78 182.742 141.933 182.422 142.24C182.102 142.533 181.902 142.98 181.822 143.58H185.262ZM190.413 139.54H194.353V141.66C194.686 140.847 195.133 140.267 195.693 139.92C196.253 139.56 196.926 139.387 197.713 139.4V143.08C196.619 143.013 195.786 143.16 195.213 143.52C194.639 143.867 194.353 144.42 194.353 145.18V150H190.413V139.54ZM202.718 148.96L198.538 139.54H202.798L204.778 144.76L206.618 139.54H210.338L204.758 153.48H201.018L202.718 148.96ZM29.28 173.96L25.1 164.54H29.36L31.34 169.76L33.18 164.54H36.9L31.32 178.48H27.58L29.28 173.96ZM42.6067 175.26C41.7667 175.26 40.9934 175.147 40.2867 174.92C39.5801 174.68 38.9667 174.333 38.4467 173.88C37.9401 173.427 37.5401 172.867 37.2467 172.2C36.9534 171.533 36.8067 170.767 36.8067 169.9V169.74C36.8067 168.887 36.9601 168.12 37.2667 167.44C37.5734 166.76 37.9867 166.187 38.5067 165.72C39.0267 165.24 39.6401 164.873 40.3467 164.62C41.0534 164.367 41.8067 164.24 42.6067 164.24C43.3401 164.24 44.0334 164.347 44.6867 164.56C45.3534 164.773 45.9334 165.107 46.4267 165.56C46.9201 166 47.3134 166.567 47.6067 167.26C47.9001 167.94 48.0467 168.747 48.0467 169.68V170.64H40.7867C40.8401 171.28 41.0401 171.767 41.3867 172.1C41.7334 172.42 42.1867 172.58 42.7467 172.58C43.3067 172.58 43.7001 172.473 43.9267 172.26C44.1667 172.033 44.3201 171.767 44.3867 171.46H48.0667C47.9067 172.673 47.3734 173.613 46.4667 174.28C45.5601 174.933 44.2734 175.26 42.6067 175.26ZM44.2467 168.58C44.2201 168.02 44.0734 167.58 43.8067 167.26C43.5401 166.94 43.1401 166.78 42.6067 166.78C42.1267 166.78 41.7267 166.933 41.4067 167.24C41.0867 167.533 40.8867 167.98 40.8067 168.58H44.2467ZM52.5147 175.26C52.048 175.26 51.5947 175.2 51.1547 175.08C50.728 174.96 50.348 174.773 50.0147 174.52C49.6947 174.267 49.4347 173.94 49.2347 173.54C49.048 173.14 48.9547 172.66 48.9547 172.1C48.9547 170.873 49.4347 170 50.3947 169.48C51.368 168.947 52.7614 168.68 54.5747 168.68H55.4747V168.5C55.4747 168.287 55.4614 168.087 55.4347 167.9C55.408 167.713 55.348 167.553 55.2547 167.42C55.1747 167.273 55.0547 167.167 54.8947 167.1C54.7347 167.02 54.5214 166.98 54.2547 166.98C53.8014 166.98 53.488 167.1 53.3147 167.34C53.1414 167.58 53.0414 167.833 53.0147 168.1H49.3347C49.3747 167.46 49.5214 166.9 49.7747 166.42C50.0414 165.94 50.3947 165.54 50.8347 165.22C51.288 164.887 51.8214 164.64 52.4347 164.48C53.0614 164.32 53.748 164.24 54.4947 164.24C56.0147 164.24 57.208 164.567 58.0747 165.22C58.9414 165.86 59.3747 166.867 59.3747 168.24V175H55.5747V173.8C55.468 173.987 55.328 174.167 55.1547 174.34C54.9814 174.513 54.768 174.667 54.5147 174.8C54.2614 174.933 53.968 175.04 53.6347 175.12C53.3147 175.213 52.9414 175.26 52.5147 175.26ZM53.9347 172.62C54.388 172.62 54.7547 172.507 55.0347 172.28C55.328 172.04 55.4747 171.727 55.4747 171.34V170.8H54.6347C53.968 170.8 53.5014 170.873 53.2347 171.02C52.968 171.167 52.8347 171.427 52.8347 171.8C52.8347 172.053 52.928 172.253 53.1147 172.4C53.3014 172.547 53.5747 172.62 53.9347 172.62ZM61.1939 164.54H65.1339V166.66C65.4672 165.847 65.9139 165.267 66.4739 164.92C67.0339 164.56 67.7072 164.387 68.4939 164.4V168.08C67.4006 168.013 66.5672 168.16 65.9939 168.52C65.4206 168.867 65.1339 169.42 65.1339 170.18V175H61.1939V164.54ZM68.092 176.58L69.712 171.14L73.352 172.4L70.392 177.44L68.092 176.58ZM83.0344 175.24C81.7944 175.24 80.841 174.947 80.1744 174.36C79.5077 173.773 79.1744 172.82 79.1744 171.5V167.18H77.9544V164.54H79.1744V162.4H83.1144V164.54H85.1144V167.18H83.1144V171.12C83.1144 171.48 83.201 171.74 83.3744 171.9C83.561 172.06 83.8144 172.14 84.1344 172.14C84.481 172.14 84.8077 172.087 85.1144 171.98V174.94C84.8744 175.007 84.5744 175.073 84.2144 175.14C83.8544 175.207 83.461 175.24 83.0344 175.24ZM91.9441 172.36C93.1441 172.36 93.7441 171.513 93.7441 169.82V169.68C93.7441 168.853 93.5974 168.227 93.3041 167.8C93.0107 167.373 92.5574 167.16 91.9441 167.16C91.3441 167.16 90.8841 167.367 90.5641 167.78C90.2441 168.18 90.0841 168.793 90.0841 169.62V169.78C90.0841 171.5 90.7041 172.36 91.9441 172.36ZM91.9241 175.26C91.1107 175.26 90.3507 175.147 89.6441 174.92C88.9374 174.68 88.3174 174.333 87.7841 173.88C87.2641 173.413 86.8507 172.853 86.5441 172.2C86.2507 171.533 86.1041 170.767 86.1041 169.9V169.74C86.1041 168.887 86.2507 168.127 86.5441 167.46C86.8507 166.78 87.2641 166.207 87.7841 165.74C88.3041 165.26 88.9174 164.893 89.6241 164.64C90.3441 164.387 91.1174 164.26 91.9441 164.26C92.7574 164.26 93.5174 164.387 94.2241 164.64C94.9307 164.88 95.5441 165.233 96.0641 165.7C96.5841 166.153 96.9907 166.713 97.2841 167.38C97.5907 168.047 97.7441 168.8 97.7441 169.64V169.8C97.7441 170.667 97.5907 171.44 97.2841 172.12C96.9907 172.787 96.5774 173.353 96.0441 173.82C95.5241 174.287 94.9107 174.647 94.2041 174.9C93.4974 175.14 92.7374 175.26 91.9241 175.26ZM107.855 178.88C106.042 178.88 104.688 178.527 103.795 177.82C102.902 177.127 102.388 176.16 102.255 174.92H106.155C106.195 175.08 106.248 175.233 106.315 175.38C106.382 175.527 106.475 175.66 106.595 175.78C106.728 175.9 106.895 175.993 107.095 176.06C107.308 176.127 107.568 176.16 107.875 176.16C108.622 176.16 109.142 175.967 109.435 175.58C109.728 175.193 109.875 174.72 109.875 174.16V172.54C109.608 173.047 109.208 173.48 108.675 173.84C108.142 174.2 107.482 174.38 106.695 174.38C106.095 174.38 105.528 174.273 104.995 174.06C104.475 173.847 104.015 173.533 103.615 173.12C103.215 172.693 102.895 172.173 102.655 171.56C102.428 170.947 102.315 170.233 102.315 169.42V169.26C102.315 168.473 102.428 167.773 102.655 167.16C102.895 166.533 103.208 166.007 103.595 165.58C103.995 165.14 104.455 164.807 104.975 164.58C105.508 164.353 106.075 164.24 106.675 164.24C107.502 164.24 108.168 164.4 108.675 164.72C109.182 165.027 109.582 165.447 109.875 165.98V164.54H113.815V174.1C113.815 175.673 113.308 176.86 112.295 177.66C111.295 178.473 109.815 178.88 107.855 178.88ZM108.155 171.58C108.742 171.58 109.195 171.387 109.515 171C109.835 170.613 109.995 170.087 109.995 169.42V169.28C109.995 168.64 109.835 168.127 109.515 167.74C109.208 167.353 108.755 167.16 108.155 167.16C107.555 167.16 107.095 167.353 106.775 167.74C106.468 168.113 106.315 168.633 106.315 169.3V169.46C106.315 170.1 106.468 170.613 106.775 171C107.095 171.387 107.555 171.58 108.155 171.58ZM120.966 175.26C120.126 175.26 119.353 175.147 118.646 174.92C117.939 174.68 117.326 174.333 116.806 173.88C116.299 173.427 115.899 172.867 115.606 172.2C115.313 171.533 115.166 170.767 115.166 169.9V169.74C115.166 168.887 115.319 168.12 115.626 167.44C115.933 166.76 116.346 166.187 116.866 165.72C117.386 165.24 117.999 164.873 118.706 164.62C119.413 164.367 120.166 164.24 120.966 164.24C121.699 164.24 122.393 164.347 123.046 164.56C123.713 164.773 124.293 165.107 124.786 165.56C125.279 166 125.673 166.567 125.966 167.26C126.259 167.94 126.406 168.747 126.406 169.68V170.64H119.146C119.199 171.28 119.399 171.767 119.746 172.1C120.093 172.42 120.546 172.58 121.106 172.58C121.666 172.58 122.059 172.473 122.286 172.26C122.526 172.033 122.679 171.767 122.746 171.46H126.426C126.266 172.673 125.733 173.613 124.826 174.28C123.919 174.933 122.633 175.26 120.966 175.26ZM122.606 168.58C122.579 168.02 122.433 167.58 122.166 167.26C121.899 166.94 121.499 166.78 120.966 166.78C120.486 166.78 120.086 166.933 119.766 167.24C119.446 167.533 119.246 167.98 119.166 168.58H122.606ZM132.116 175.24C130.876 175.24 129.923 174.947 129.256 174.36C128.59 173.773 128.256 172.82 128.256 171.5V167.18H127.036V164.54H128.256V162.4H132.196V164.54H134.196V167.18H132.196V171.12C132.196 171.48 132.283 171.74 132.456 171.9C132.643 172.06 132.896 172.14 133.216 172.14C133.563 172.14 133.89 172.087 134.196 171.98V174.94C133.956 175.007 133.656 175.073 133.296 175.14C132.936 175.207 132.543 175.24 132.116 175.24ZM143.258 175.26C142.671 175.26 142.111 175.153 141.578 174.94C141.058 174.727 140.598 174.4 140.198 173.96C139.798 173.507 139.478 172.947 139.238 172.28C139.011 171.6 138.898 170.8 138.898 169.88V169.72C138.898 168.813 139.011 168.02 139.238 167.34C139.478 166.647 139.791 166.073 140.178 165.62C140.578 165.167 141.038 164.827 141.558 164.6C142.091 164.373 142.658 164.26 143.258 164.26C144.084 164.26 144.751 164.413 145.258 164.72C145.764 165.027 146.164 165.447 146.458 165.98V160H150.398V175H146.458V173.32C146.191 173.867 145.791 174.327 145.258 174.7C144.724 175.073 144.058 175.26 143.258 175.26ZM144.718 172.26C145.318 172.26 145.771 172.053 146.078 171.64C146.398 171.227 146.558 170.613 146.558 169.8V169.64C146.558 168.84 146.404 168.233 146.098 167.82C145.791 167.393 145.338 167.18 144.738 167.18C143.511 167.18 142.898 168.007 142.898 169.66V169.82C142.898 170.633 143.051 171.247 143.358 171.66C143.678 172.06 144.131 172.26 144.718 172.26ZM152.268 164.54H156.208V166.66C156.541 165.847 156.988 165.267 157.548 164.92C158.108 164.56 158.781 164.387 159.568 164.4V168.08C158.475 168.013 157.641 168.16 157.068 168.52C156.495 168.867 156.208 169.42 156.208 170.18V175H152.268V164.54ZM163.765 175.26C163.298 175.26 162.845 175.2 162.405 175.08C161.978 174.96 161.598 174.773 161.265 174.52C160.945 174.267 160.685 173.94 160.485 173.54C160.298 173.14 160.205 172.66 160.205 172.1C160.205 170.873 160.685 170 161.645 169.48C162.618 168.947 164.011 168.68 165.825 168.68H166.725V168.5C166.725 168.287 166.711 168.087 166.685 167.9C166.658 167.713 166.598 167.553 166.505 167.42C166.425 167.273 166.305 167.167 166.145 167.1C165.985 167.02 165.771 166.98 165.505 166.98C165.051 166.98 164.738 167.1 164.565 167.34C164.391 167.58 164.291 167.833 164.265 168.1H160.585C160.625 167.46 160.771 166.9 161.025 166.42C161.291 165.94 161.645 165.54 162.085 165.22C162.538 164.887 163.071 164.64 163.685 164.48C164.311 164.32 164.998 164.24 165.745 164.24C167.265 164.24 168.458 164.567 169.325 165.22C170.191 165.86 170.625 166.867 170.625 168.24V175H166.825V173.8C166.718 173.987 166.578 174.167 166.405 174.34C166.231 174.513 166.018 174.667 165.765 174.8C165.511 174.933 165.218 175.04 164.885 175.12C164.565 175.213 164.191 175.26 163.765 175.26ZM165.185 172.62C165.638 172.62 166.005 172.507 166.285 172.28C166.578 172.04 166.725 171.727 166.725 171.34V170.8H165.885C165.218 170.8 164.751 170.873 164.485 171.02C164.218 171.167 164.085 171.427 164.085 171.8C164.085 172.053 164.178 172.253 164.365 172.4C164.551 172.547 164.825 172.62 165.185 172.62ZM173.004 167.18H171.724V164.54H173.004V163.76C173.004 163.08 173.104 162.493 173.304 162C173.517 161.507 173.811 161.1 174.184 160.78C174.571 160.46 175.024 160.227 175.544 160.08C176.077 159.92 176.664 159.84 177.304 159.84C177.651 159.84 177.957 159.86 178.224 159.9C178.491 159.94 178.751 159.993 179.004 160.06V162.88C178.884 162.853 178.744 162.827 178.584 162.8C178.437 162.773 178.264 162.76 178.064 162.76C177.677 162.76 177.391 162.86 177.204 163.06C177.031 163.247 176.944 163.487 176.944 163.78V164.54H178.984V167.18H176.944V175H173.004V167.18ZM184.753 175.24C183.513 175.24 182.56 174.947 181.893 174.36C181.226 173.773 180.893 172.82 180.893 171.5V167.18H179.673V164.54H180.893V162.4H184.833V164.54H186.833V167.18H184.833V171.12C184.833 171.48 184.92 171.74 185.093 171.9C185.28 172.06 185.533 172.14 185.853 172.14C186.2 172.14 186.526 172.087 186.833 171.98V174.94C186.593 175.007 186.293 175.073 185.933 175.14C185.573 175.207 185.18 175.24 184.753 175.24ZM193.603 175.26C192.763 175.26 191.989 175.147 191.283 174.92C190.576 174.68 189.963 174.333 189.443 173.88C188.936 173.427 188.536 172.867 188.243 172.2C187.949 171.533 187.803 170.767 187.803 169.9V169.74C187.803 168.887 187.956 168.12 188.263 167.44C188.569 166.76 188.983 166.187 189.503 165.72C190.023 165.24 190.636 164.873 191.343 164.62C192.049 164.367 192.803 164.24 193.603 164.24C194.336 164.24 195.029 164.347 195.683 164.56C196.349 164.773 196.929 165.107 197.423 165.56C197.916 166 198.309 166.567 198.603 167.26C198.896 167.94 199.043 168.747 199.043 169.68V170.64H191.783C191.836 171.28 192.036 171.767 192.383 172.1C192.729 172.42 193.183 172.58 193.743 172.58C194.303 172.58 194.696 172.473 194.923 172.26C195.163 172.033 195.316 171.767 195.383 171.46H199.063C198.903 172.673 198.369 173.613 197.463 174.28C196.556 174.933 195.269 175.26 193.603 175.26ZM195.243 168.58C195.216 168.02 195.069 167.58 194.803 167.26C194.536 166.94 194.136 166.78 193.603 166.78C193.123 166.78 192.723 166.933 192.403 167.24C192.083 167.533 191.883 167.98 191.803 168.58H195.243ZM204.273 175.26C203.686 175.26 203.126 175.153 202.593 174.94C202.073 174.727 201.613 174.4 201.213 173.96C200.813 173.507 200.493 172.947 200.253 172.28C200.026 171.6 199.913 170.8 199.913 169.88V169.72C199.913 168.813 200.026 168.02 200.253 167.34C200.493 166.647 200.806 166.073 201.193 165.62C201.593 165.167 202.053 164.827 202.573 164.6C203.106 164.373 203.673 164.26 204.273 164.26C205.1 164.26 205.766 164.413 206.273 164.72C206.78 165.027 207.18 165.447 207.473 165.98V160H211.413V175H207.473V173.32C207.206 173.867 206.806 174.327 206.273 174.7C205.74 175.073 205.073 175.26 204.273 175.26ZM205.733 172.26C206.333 172.26 206.786 172.053 207.093 171.64C207.413 171.227 207.573 170.613 207.573 169.8V169.64C207.573 168.84 207.42 168.233 207.113 167.82C206.806 167.393 206.353 167.18 205.753 167.18C204.526 167.18 203.913 168.007 203.913 169.66V169.82C203.913 170.633 204.066 171.247 204.373 171.66C204.693 172.06 205.146 172.26 205.733 172.26ZM30.3 200.24C29.06 200.24 28.1067 199.947 27.44 199.36C26.7733 198.773 26.44 197.82 26.44 196.5V192.18H25.22V189.54H26.44V187.4H30.38V189.54H32.38V192.18H30.38V196.12C30.38 196.48 30.4667 196.74 30.64 196.9C30.8267 197.06 31.08 197.14 31.4 197.14C31.7467 197.14 32.0733 197.087 32.38 196.98V199.94C32.14 200.007 31.84 200.073 31.48 200.14C31.12 200.207 30.7267 200.24 30.3 200.24ZM39.2097 197.36C40.4097 197.36 41.0097 196.513 41.0097 194.82V194.68C41.0097 193.853 40.863 193.227 40.5697 192.8C40.2764 192.373 39.823 192.16 39.2097 192.16C38.6097 192.16 38.1497 192.367 37.8297 192.78C37.5097 193.18 37.3497 193.793 37.3497 194.62V194.78C37.3497 196.5 37.9697 197.36 39.2097 197.36ZM39.1897 200.26C38.3764 200.26 37.6164 200.147 36.9097 199.92C36.203 199.68 35.583 199.333 35.0497 198.88C34.5297 198.413 34.1164 197.853 33.8097 197.2C33.5164 196.533 33.3697 195.767 33.3697 194.9V194.74C33.3697 193.887 33.5164 193.127 33.8097 192.46C34.1164 191.78 34.5297 191.207 35.0497 190.74C35.5697 190.26 36.183 189.893 36.8897 189.64C37.6097 189.387 38.383 189.26 39.2097 189.26C40.023 189.26 40.783 189.387 41.4897 189.64C42.1964 189.88 42.8097 190.233 43.3297 190.7C43.8497 191.153 44.2564 191.713 44.5497 192.38C44.8564 193.047 45.0097 193.8 45.0097 194.64V194.8C45.0097 195.667 44.8564 196.44 44.5497 197.12C44.2564 197.787 43.843 198.353 43.3097 198.82C42.7897 199.287 42.1764 199.647 41.4697 199.9C40.763 200.14 40.003 200.26 39.1897 200.26ZM54.4406 200.24C53.2006 200.24 52.2473 199.947 51.5806 199.36C50.914 198.773 50.5806 197.82 50.5806 196.5V192.18H49.3606V189.54H50.5806V187.4H54.5206V189.54H56.5206V192.18H54.5206V196.12C54.5206 196.48 54.6073 196.74 54.7806 196.9C54.9673 197.06 55.2206 197.14 55.5406 197.14C55.8873 197.14 56.214 197.087 56.5206 196.98V199.94C56.2806 200.007 55.9806 200.073 55.6206 200.14C55.2606 200.207 54.8673 200.24 54.4406 200.24ZM58.0103 185H61.9503V191.22C62.2436 190.66 62.6703 190.193 63.2303 189.82C63.8036 189.447 64.5303 189.26 65.4103 189.26C65.9036 189.26 66.357 189.34 66.7703 189.5C67.1836 189.66 67.537 189.9 67.8303 190.22C68.1236 190.54 68.3503 190.94 68.5103 191.42C68.6836 191.9 68.7703 192.467 68.7703 193.12V200H64.8303V194C64.8303 193.467 64.7236 193.067 64.5103 192.8C64.3103 192.533 63.977 192.4 63.5103 192.4C63.017 192.4 62.6303 192.547 62.3503 192.84C62.0836 193.133 61.9503 193.593 61.9503 194.22V200H58.0103V185ZM75.8684 200.26C75.0284 200.26 74.2551 200.147 73.5484 199.92C72.8418 199.68 72.2284 199.333 71.7084 198.88C71.2018 198.427 70.8018 197.867 70.5084 197.2C70.2151 196.533 70.0684 195.767 70.0684 194.9V194.74C70.0684 193.887 70.2218 193.12 70.5284 192.44C70.8351 191.76 71.2484 191.187 71.7684 190.72C72.2884 190.24 72.9018 189.873 73.6084 189.62C74.3151 189.367 75.0684 189.24 75.8684 189.24C76.6018 189.24 77.2951 189.347 77.9484 189.56C78.6151 189.773 79.1951 190.107 79.6884 190.56C80.1818 191 80.5751 191.567 80.8684 192.26C81.1618 192.94 81.3084 193.747 81.3084 194.68V195.64H74.0484C74.1018 196.28 74.3018 196.767 74.6484 197.1C74.9951 197.42 75.4484 197.58 76.0084 197.58C76.5684 197.58 76.9618 197.473 77.1884 197.26C77.4284 197.033 77.5818 196.767 77.6484 196.46H81.3284C81.1684 197.673 80.6351 198.613 79.7284 199.28C78.8218 199.933 77.5351 200.26 75.8684 200.26ZM77.5084 193.58C77.4818 193.02 77.3351 192.58 77.0684 192.26C76.8018 191.94 76.4018 191.78 75.8684 191.78C75.3884 191.78 74.9884 191.933 74.6684 192.24C74.3484 192.533 74.1484 192.98 74.0684 193.58H77.5084ZM86.7102 185.7H91.7902L95.8502 193.26V185.7H99.8302V200H95.4902L90.7102 191.44V200H86.7102V185.7ZM102.452 185.7H109.212C110.092 185.7 110.839 185.8 111.452 186C112.079 186.187 112.586 186.447 112.972 186.78C113.359 187.113 113.639 187.507 113.812 187.96C113.999 188.413 114.092 188.907 114.092 189.44V189.52C114.092 190.36 113.879 191.04 113.452 191.56C113.026 192.067 112.412 192.413 111.612 192.6C112.452 192.747 113.139 193.093 113.672 193.64C114.206 194.173 114.472 194.94 114.472 195.94V196.02C114.472 197.287 114.046 198.267 113.192 198.96C112.352 199.653 111.012 200 109.172 200H102.452V185.7ZM108.312 197.02C108.899 197.02 109.326 196.893 109.592 196.64C109.872 196.373 110.012 196 110.012 195.52V195.44C110.012 194.973 109.872 194.613 109.592 194.36C109.312 194.107 108.852 193.98 108.212 193.98H106.872V197.02H108.312ZM108.252 191.28C108.812 191.28 109.212 191.18 109.452 190.98C109.692 190.78 109.812 190.46 109.812 190.02V189.94C109.812 189.513 109.686 189.193 109.432 188.98C109.192 188.767 108.792 188.66 108.232 188.66H106.872V191.28H108.252ZM119.446 185.7H125.306L129.786 200H124.986L124.326 197.62H119.806L119.166 200H114.946L119.446 185.7ZM120.666 194.54H123.486L122.086 189.36L120.666 194.54Z" fill="white"/>
<path d="M148.766 354.058C147.833 354.058 147.002 353.899 146.274 353.582C145.555 353.274 144.949 352.854 144.454 352.322C143.969 351.799 143.6 351.197 143.348 350.516C143.096 349.825 142.97 349.107 142.97 348.36C142.97 347.501 143.129 346.708 143.446 345.98C143.763 345.243 144.193 344.608 144.734 344.076C145.285 343.544 145.919 343.129 146.638 342.83C147.366 342.522 148.136 342.368 148.948 342.368C149.788 342.368 150.549 342.499 151.23 342.76C151.911 343.021 152.495 343.385 152.98 343.852C153.475 344.309 153.853 344.851 154.114 345.476C154.385 346.101 154.52 346.773 154.52 347.492C154.52 348.155 154.436 348.715 154.268 349.172C154.1 349.62 153.885 349.984 153.624 350.264C153.363 350.544 153.078 350.749 152.77 350.88C152.462 351.001 152.168 351.062 151.888 351.062C151.608 351.062 151.37 351.034 151.174 350.978C150.978 350.922 150.819 350.843 150.698 350.74C150.577 350.628 150.483 350.502 150.418 350.362C150.353 350.213 150.306 350.045 150.278 349.858C150.073 350.222 149.783 350.53 149.41 350.782C149.037 351.034 148.631 351.16 148.192 351.16C147.511 351.16 146.965 350.945 146.554 350.516C146.143 350.077 145.938 349.48 145.938 348.724C145.938 348.257 146.008 347.828 146.148 347.436C146.297 347.035 146.493 346.689 146.736 346.4C146.988 346.111 147.282 345.887 147.618 345.728C147.954 345.56 148.313 345.476 148.696 345.476C148.948 345.476 149.167 345.504 149.354 345.56C149.541 345.616 149.704 345.691 149.844 345.784C149.984 345.868 150.096 345.966 150.18 346.078C150.273 346.19 150.343 346.307 150.39 346.428L150.488 345.588H151.65L151.23 349.116C151.137 349.853 151.361 350.222 151.902 350.222C152.098 350.222 152.294 350.171 152.49 350.068C152.686 349.965 152.859 349.807 153.008 349.592C153.157 349.368 153.279 349.088 153.372 348.752C153.465 348.407 153.512 347.996 153.512 347.52C153.512 346.895 153.409 346.325 153.204 345.812C152.999 345.289 152.7 344.841 152.308 344.468C151.916 344.095 151.435 343.805 150.866 343.6C150.306 343.395 149.667 343.292 148.948 343.292C148.239 343.292 147.585 343.418 146.988 343.67C146.391 343.913 145.873 344.258 145.434 344.706C145.005 345.145 144.664 345.677 144.412 346.302C144.169 346.918 144.048 347.595 144.048 348.332C144.048 348.967 144.146 349.578 144.342 350.166C144.547 350.745 144.846 351.253 145.238 351.692C145.63 352.131 146.12 352.481 146.708 352.742C147.296 353.003 147.982 353.134 148.766 353.134C149.149 353.134 149.494 353.111 149.802 353.064C150.11 353.017 150.395 352.943 150.656 352.84C150.927 352.747 151.174 352.63 151.398 352.49C151.631 352.35 151.855 352.187 152.07 352H153.148C152.971 352.308 152.737 352.588 152.448 352.84C152.159 353.092 151.823 353.307 151.44 353.484C151.067 353.671 150.651 353.811 150.194 353.904C149.746 354.007 149.27 354.058 148.766 354.058ZM148.444 350.264C148.659 350.264 148.873 350.217 149.088 350.124C149.303 350.021 149.494 349.877 149.662 349.69C149.83 349.494 149.965 349.256 150.068 348.976C150.18 348.687 150.236 348.355 150.236 347.982C150.236 347.45 150.105 347.053 149.844 346.792C149.592 346.531 149.237 346.4 148.78 346.4C148.556 346.4 148.346 346.451 148.15 346.554C147.954 346.657 147.777 346.806 147.618 347.002C147.469 347.198 147.347 347.441 147.254 347.73C147.17 348.019 147.128 348.346 147.128 348.71C147.128 349.205 147.249 349.587 147.492 349.858C147.744 350.129 148.061 350.264 148.444 350.264ZM158.716 352.098C158.044 352.098 157.545 351.921 157.218 351.566C156.901 351.211 156.742 350.745 156.742 350.166V345.658H155.692V344.678H156.742V343.012H157.904V344.678H159.612V345.658H157.904V350.054C157.904 350.763 158.208 351.118 158.814 351.118C159.001 351.118 159.164 351.104 159.304 351.076C159.444 351.048 159.58 351.011 159.71 350.964V351.944C159.589 351.991 159.454 352.028 159.304 352.056C159.155 352.084 158.959 352.098 158.716 352.098ZM164.683 351.16C165.047 351.16 165.378 351.095 165.677 350.964C165.976 350.833 166.228 350.647 166.433 350.404C166.638 350.161 166.797 349.872 166.909 349.536C167.021 349.191 167.077 348.813 167.077 348.402V348.304C167.077 347.884 167.021 347.501 166.909 347.156C166.797 346.811 166.634 346.517 166.419 346.274C166.214 346.031 165.962 345.845 165.663 345.714C165.374 345.583 165.047 345.518 164.683 345.518C164.319 345.518 163.988 345.583 163.689 345.714C163.39 345.845 163.138 346.031 162.933 346.274C162.728 346.517 162.569 346.811 162.457 347.156C162.345 347.492 162.289 347.87 162.289 348.29V348.402C162.289 349.242 162.499 349.914 162.919 350.418C163.348 350.913 163.936 351.16 164.683 351.16ZM164.669 352.126C164.146 352.126 163.666 352.033 163.227 351.846C162.788 351.659 162.41 351.403 162.093 351.076C161.776 350.74 161.528 350.343 161.351 349.886C161.174 349.429 161.085 348.934 161.085 348.402V348.29C161.085 347.739 161.174 347.235 161.351 346.778C161.538 346.321 161.79 345.929 162.107 345.602C162.424 345.266 162.802 345.009 163.241 344.832C163.68 344.645 164.16 344.552 164.683 344.552C165.196 344.552 165.672 344.645 166.111 344.832C166.559 345.009 166.942 345.261 167.259 345.588C167.576 345.915 167.824 346.307 168.001 346.764C168.188 347.221 168.281 347.725 168.281 348.276V348.388C168.281 348.939 168.188 349.447 168.001 349.914C167.824 350.371 167.572 350.763 167.245 351.09C166.928 351.417 166.55 351.673 166.111 351.86C165.672 352.037 165.192 352.126 164.669 352.126ZM170.258 344.678H171.42V345.84C171.588 345.495 171.868 345.196 172.26 344.944C172.661 344.683 173.165 344.552 173.772 344.552C174.145 344.552 174.491 344.608 174.808 344.72C175.125 344.823 175.396 344.995 175.62 345.238C175.853 345.471 176.031 345.775 176.152 346.148C176.283 346.521 176.348 346.974 176.348 347.506V352H175.186V347.422C175.186 346.778 175.046 346.307 174.766 346.008C174.486 345.709 174.052 345.56 173.464 345.56C173.193 345.56 172.932 345.602 172.68 345.686C172.437 345.77 172.223 345.896 172.036 346.064C171.849 346.232 171.7 346.442 171.588 346.694C171.476 346.946 171.42 347.235 171.42 347.562V352H170.258V344.678ZM178.831 344.678H179.993V352H178.831V344.678ZM179.391 343.152C179.176 343.152 178.994 343.077 178.845 342.928C178.696 342.779 178.621 342.597 178.621 342.382C178.621 342.167 178.696 341.985 178.845 341.836C178.994 341.687 179.176 341.612 179.391 341.612C179.606 341.612 179.788 341.687 179.937 341.836C180.086 341.985 180.161 342.167 180.161 342.382C180.161 342.597 180.086 342.779 179.937 342.928C179.788 343.077 179.606 343.152 179.391 343.152ZM185.461 354.674C184.92 354.674 184.449 354.613 184.047 354.492C183.655 354.371 183.324 354.207 183.053 354.002C182.792 353.806 182.587 353.568 182.437 353.288C182.288 353.017 182.19 352.728 182.143 352.42H183.333C183.501 353.269 184.206 353.694 185.447 353.694C186.166 353.694 186.735 353.512 187.155 353.148C187.585 352.793 187.799 352.224 187.799 351.44V350.376C187.697 350.553 187.557 350.726 187.379 350.894C187.211 351.062 187.015 351.211 186.791 351.342C186.577 351.463 186.343 351.566 186.091 351.65C185.839 351.725 185.583 351.762 185.321 351.762C184.845 351.762 184.402 351.678 183.991 351.51C183.581 351.333 183.226 351.09 182.927 350.782C182.638 350.474 182.409 350.11 182.241 349.69C182.073 349.261 181.989 348.794 181.989 348.29V348.192C181.989 347.697 182.073 347.231 182.241 346.792C182.409 346.344 182.643 345.957 182.941 345.63C183.24 345.294 183.599 345.033 184.019 344.846C184.439 344.65 184.901 344.552 185.405 344.552C186.021 344.552 186.521 344.683 186.903 344.944C187.286 345.196 187.585 345.499 187.799 345.854V344.678H188.961V351.51C188.961 352.042 188.873 352.504 188.695 352.896C188.518 353.297 188.275 353.629 187.967 353.89C187.659 354.151 187.291 354.347 186.861 354.478C186.441 354.609 185.975 354.674 185.461 354.674ZM185.447 350.796C185.783 350.796 186.096 350.74 186.385 350.628C186.684 350.507 186.941 350.339 187.155 350.124C187.37 349.9 187.538 349.629 187.659 349.312C187.781 348.985 187.841 348.617 187.841 348.206V348.108C187.841 347.287 187.631 346.652 187.211 346.204C186.801 345.747 186.236 345.518 185.517 345.518C185.153 345.518 184.827 345.583 184.537 345.714C184.248 345.845 184.005 346.027 183.809 346.26C183.613 346.484 183.459 346.759 183.347 347.086C183.245 347.403 183.193 347.753 183.193 348.136V348.248C183.193 348.649 183.254 349.009 183.375 349.326C183.497 349.634 183.655 349.9 183.851 350.124C184.057 350.339 184.295 350.507 184.565 350.628C184.845 350.74 185.139 350.796 185.447 350.796ZM194.473 352.126C193.95 352.126 193.474 352.037 193.045 351.86C192.615 351.683 192.242 351.435 191.925 351.118C191.607 350.791 191.36 350.399 191.183 349.942C191.015 349.485 190.931 348.976 190.931 348.416V348.304C190.931 347.753 191.015 347.249 191.183 346.792C191.351 346.325 191.584 345.929 191.883 345.602C192.191 345.266 192.555 345.009 192.975 344.832C193.395 344.645 193.857 344.552 194.361 344.552C194.781 344.552 195.187 344.622 195.579 344.762C195.98 344.893 196.335 345.103 196.643 345.392C196.951 345.681 197.193 346.059 197.371 346.526C197.557 346.983 197.651 347.539 197.651 348.192V348.57H192.135C192.163 349.41 192.373 350.054 192.765 350.502C193.157 350.941 193.731 351.16 194.487 351.16C195.635 351.16 196.283 350.735 196.433 349.886H197.595C197.464 350.623 197.119 351.183 196.559 351.566C195.999 351.939 195.303 352.126 194.473 352.126ZM196.461 347.632C196.405 346.876 196.19 346.335 195.817 346.008C195.453 345.681 194.967 345.518 194.361 345.518C193.763 345.518 193.273 345.709 192.891 346.092C192.517 346.465 192.279 346.979 192.177 347.632H196.461ZM199.598 344.678H200.76V345.798C200.928 345.453 201.199 345.159 201.572 344.916C201.955 344.673 202.412 344.552 202.944 344.552C203.42 344.552 203.849 344.659 204.232 344.874C204.615 345.079 204.899 345.429 205.086 345.924C205.207 345.691 205.366 345.49 205.562 345.322C205.758 345.145 205.968 345 206.192 344.888C206.416 344.776 206.649 344.692 206.892 344.636C207.135 344.58 207.368 344.552 207.592 344.552C207.919 344.552 208.231 344.603 208.53 344.706C208.829 344.809 209.09 344.977 209.314 345.21C209.538 345.443 209.715 345.747 209.846 346.12C209.986 346.484 210.056 346.932 210.056 347.464V352H208.894V347.38C208.894 346.736 208.759 346.274 208.488 345.994C208.227 345.705 207.844 345.56 207.34 345.56C207.097 345.56 206.859 345.602 206.626 345.686C206.402 345.761 206.197 345.882 206.01 346.05C205.833 346.209 205.688 346.414 205.576 346.666C205.464 346.909 205.408 347.193 205.408 347.52V352H204.246V347.38C204.246 346.736 204.111 346.274 203.84 345.994C203.579 345.705 203.196 345.56 202.692 345.56C202.449 345.56 202.211 345.602 201.978 345.686C201.754 345.761 201.549 345.882 201.362 346.05C201.185 346.209 201.04 346.414 200.928 346.666C200.816 346.909 200.76 347.193 200.76 347.52V352H199.598V344.678ZM214.338 352.126C214.002 352.126 213.685 352.084 213.386 352C213.087 351.916 212.826 351.785 212.602 351.608C212.387 351.431 212.215 351.207 212.084 350.936C211.963 350.665 211.902 350.343 211.902 349.97C211.902 349.55 212.005 349.195 212.21 348.906C212.415 348.617 212.686 348.383 213.022 348.206C213.367 348.029 213.759 347.903 214.198 347.828C214.646 347.744 215.103 347.702 215.57 347.702H216.62V347.17C216.62 346.582 216.499 346.162 216.256 345.91C216.013 345.649 215.612 345.518 215.052 345.518C214.044 345.518 213.484 345.957 213.372 346.834H212.21C212.247 346.414 212.35 346.059 212.518 345.77C212.695 345.481 212.915 345.247 213.176 345.07C213.447 344.883 213.745 344.753 214.072 344.678C214.408 344.594 214.753 344.552 215.108 344.552C215.453 344.552 215.789 344.594 216.116 344.678C216.443 344.753 216.727 344.893 216.97 345.098C217.213 345.294 217.409 345.56 217.558 345.896C217.707 346.232 217.782 346.657 217.782 347.17V352H216.62V351.076C216.349 351.421 216.037 351.683 215.682 351.86C215.327 352.037 214.879 352.126 214.338 352.126ZM214.45 351.202C214.758 351.202 215.043 351.165 215.304 351.09C215.575 351.006 215.803 350.889 215.99 350.74C216.186 350.591 216.34 350.409 216.452 350.194C216.564 349.97 216.62 349.718 216.62 349.438V348.528H215.612C215.248 348.528 214.907 348.556 214.59 348.612C214.282 348.659 214.011 348.738 213.778 348.85C213.554 348.962 213.377 349.111 213.246 349.298C213.125 349.475 213.064 349.699 213.064 349.97C213.064 350.353 213.167 350.656 213.372 350.88C213.577 351.095 213.937 351.202 214.45 351.202ZM222.068 351.244L219.198 344.678H220.444L222.684 349.928L224.714 344.678H225.904L221.858 354.548H220.682L222.068 351.244ZM230.389 352.126C229.866 352.126 229.39 352.037 228.961 351.86C228.531 351.683 228.158 351.435 227.841 351.118C227.523 350.791 227.276 350.399 227.099 349.942C226.931 349.485 226.847 348.976 226.847 348.416V348.304C226.847 347.753 226.931 347.249 227.099 346.792C227.267 346.325 227.5 345.929 227.799 345.602C228.107 345.266 228.471 345.009 228.891 344.832C229.311 344.645 229.773 344.552 230.277 344.552C230.697 344.552 231.103 344.622 231.495 344.762C231.896 344.893 232.251 345.103 232.559 345.392C232.867 345.681 233.109 346.059 233.287 346.526C233.473 346.983 233.567 347.539 233.567 348.192V348.57H228.051C228.079 349.41 228.289 350.054 228.681 350.502C229.073 350.941 229.647 351.16 230.403 351.16C231.551 351.16 232.199 350.735 232.349 349.886H233.511C233.38 350.623 233.035 351.183 232.475 351.566C231.915 351.939 231.219 352.126 230.389 352.126ZM232.377 347.632C232.321 346.876 232.106 346.335 231.733 346.008C231.369 345.681 230.883 345.518 230.277 345.518C229.679 345.518 229.189 345.709 228.807 346.092C228.433 346.465 228.195 346.979 228.093 347.632H232.377ZM235.542 341.178H236.718V352H235.542V341.178Z" fill="#C5E4FC"/>
<path d="M28.122 343.754V352H30.404V343.754H33.106V341.99H25.42V343.754H28.122ZM34.546 341.99L36.982 352H39.166L41 345.084L42.806 352H45.116L47.552 341.99H45.452L43.828 348.948L42.05 341.99H40.118L38.41 348.906L36.842 341.99H34.546ZM49.6535 341.99V352H51.9355V341.99H49.6535ZM56.7743 343.754V352H59.0563V343.754H61.7583V341.99H54.0723V343.754H56.7743ZM65.874 343.754V352H68.156V343.754H70.858V341.99H63.172V343.754H65.874ZM72.9452 341.99V352H79.6932V350.236H75.1992V347.744H78.6152V346.092H75.1992V343.754H79.4692V341.99H72.9452ZM81.9491 341.99V352H84.2031V348.136H85.1831L87.5771 352H89.9851L87.3391 347.744C87.6191 347.66 87.8991 347.548 88.1511 347.394C88.4031 347.254 88.6131 347.072 88.8091 346.848C88.9911 346.638 89.1311 346.386 89.2431 346.092C89.3411 345.812 89.3971 345.476 89.3971 345.084V345.028C89.3971 344.524 89.2991 344.076 89.1171 343.684C88.9351 343.306 88.6831 342.984 88.3471 342.732C88.0111 342.48 87.6051 342.298 87.1291 342.172C86.6531 342.06 86.1211 341.99 85.5331 341.99H81.9491ZM85.4771 346.596H84.2031V343.726H85.4771C86.0231 343.726 86.4431 343.838 86.7371 344.034C87.0311 344.23 87.1851 344.594 87.1851 345.098V345.154C87.1851 345.63 87.0311 345.994 86.7511 346.232C86.4711 346.484 86.0371 346.596 85.4771 346.596Z" fill="white"/>
</g>
<defs>
<clipPath id="clip0_3_75">
<rect width="263" height="370" fill="white"/>
</clipPath>
</defs>
</svg>
